<svg width="30" height="32" viewBox="0 0 30 32" fill="none" xmlns="http://www.w3.org/2000/svg">
<g clip-path="url(#clip0_76_320)" filter="url(#filter0_d_76_320)">
<path d="M17.2625 3.57494C17.475 3.19994 17.2625 2.69994 16.825 2.64994C13.55 2.18744 10.2 2.99994 7.52499 4.97494C7.28749 5.16244 7.21249 5.51244 7.37499 5.78744L11.1375 12.3124C11.375 12.7249 11.975 12.7249 12.225 12.3124L17.2625 3.57494ZM26.625 10.4124C25.4 7.32494 22.975 4.83744 19.9375 3.53744C19.65 3.41244 19.3125 3.53744 19.15 3.81244L15.3875 10.3249C15.15 10.7249 15.45 11.2499 15.9375 11.2499H26.0375C26.475 11.2499 26.7875 10.8124 26.625 10.4124ZM26.7125 12.4999H18.9625C18.4875 12.4999 18.175 13.0249 18.425 13.4374L23.75 22.6749C23.9625 23.0499 24.5 23.1124 24.775 22.7749C26.95 20.0499 27.875 16.4874 27.3375 13.0374C27.3 12.7249 27.025 12.4999 26.7125 12.4999ZM5.22499 7.23744C3.06249 9.97494 2.12499 13.5124 2.66249 16.9749C2.69999 17.2749 2.97499 17.4999 3.28749 17.4999H11.0375C11.5125 17.4999 11.825 16.9749 11.575 16.5624L6.24999 7.33744C6.02499 6.96244 5.48749 6.89994 5.22499 7.23744ZM3.37499 19.5874C4.59999 22.6749 7.02499 25.1624 10.0625 26.4624C10.35 26.5874 10.6875 26.4624 10.85 26.1874L14.6125 19.6749C14.85 19.2624 14.55 18.7374 14.075 18.7374H3.96249C3.52499 18.7499 3.21249 19.1874 3.37499 19.5874ZM13.1625 27.3624C16.4375 27.8249 19.7875 27.0124 22.4625 25.0374C22.7125 24.8499 22.7875 24.4874 22.625 24.2124L18.8625 17.6874C18.625 17.2749 18.025 17.2749 17.775 17.6874L12.725 26.4249C12.5125 26.7999 12.7375 27.2999 13.1625 27.3624Z" fill="#F1F1F1"/>
</g>
<defs>
<filter id="filter0_d_76_320" x="-2" y="0" width="34" height="34" filterUnits="userSpaceOnUse" color-interpolation-filters="sRGB">
<feFlood flood-opacity="0" result="BackgroundImageFix"/>
<feColorMatrix in="SourceAlpha" type="matrix" values="0 0 0 0 0 0 0 0 0 0 0 0 0 0 0 0 0 0 127 0" result="hardAlpha"/>
<feOffset dy="2"/>
<feGaussianBlur stdDeviation="1"/>
<feComposite in2="hardAlpha" operator="out"/>
<feColorMatrix type="matrix" values="0 0 0 0 0 0 0 0 0 0 0 0 0 0 0 0 0 0 0.25 0"/>
<feBlend mode="normal" in2="BackgroundImageFix" result="effect1_dropShadow_76_320"/>
<feBlend mode="normal" in="SourceGraphic" in2="effect1_dropShadow_76_320" result="shape"/>
</filter>
<clipPath id="clip0_76_320">
<rect width="30" height="30" fill="white"/>
</clipPath>
</defs>
</svg>
